<?xml version="1.0" encoding="UTF-8"?>
<svg version="1.1" xmlns="http://www.w3.org/2000/svg" width="512" height="512">
<path d="M0 0 C1.83375144 -0.00576172 1.83375144 -0.00576172 3.70454836 -0.01163983 C5.05283648 -0.01085969 6.40112454 -0.00998093 7.74941254 -0.00901413 C9.18829411 -0.01159942 10.62717496 -0.01461304 12.06605482 -0.01801753 C16.01602458 -0.02607172 19.96597616 -0.02787622 23.91595316 -0.028615 C28.17791892 -0.03046835 32.43987531 -0.03801719 36.70183563 -0.04475021 C46.02030369 -0.05832363 55.33876743 -0.06435694 64.65724373 -0.06876087 C70.47901882 -0.07152542 76.30079225 -0.07576321 82.12256622 -0.08026505 C98.25009558 -0.09245727 114.37762361 -0.10275612 130.50515747 -0.10614014 C131.53708881 -0.1063597 132.56902016 -0.10657927 133.63222215 -0.10680549 C134.66658891 -0.10702377 135.70095568 -0.10724204 136.76666689 -0.10746694 C138.86260001 -0.1079104 140.95853313 -0.10835696 143.05446625 -0.10880661 C144.09411606 -0.10902804 145.13376588 -0.10924947 146.20492023 -0.10947761 C163.04040231 -0.11342325 179.87584105 -0.13087036 196.71130639 -0.15416613 C214.00753547 -0.17790568 231.30374283 -0.1903432 248.59998846 -0.19150805 C258.30646214 -0.19242344 268.01287937 -0.19814124 277.71933746 -0.21632767 C285.98698789 -0.23176392 294.25456441 -0.23682843 302.52222651 -0.22858956 C306.73661285 -0.22469529 310.95085052 -0.22555249 315.16521835 -0.23964691 C319.03194825 -0.25245978 322.8984189 -0.25112424 326.76514882 -0.2390562 C328.80843761 -0.23619882 330.85173121 -0.24797881 332.89498377 -0.26047826 C344.37439465 -0.19963719 355.55641392 1.48693415 366.02223969 6.38142776 C366.69094086 6.68661331 367.35964203 6.99179886 368.04860687 7.30623245 C382.76461649 14.18690394 396.04278627 25.08324281 405.83473969 38.13142776 C406.57302094 40.41658401 406.57302094 40.41658401 406.83473969 42.13142776 C407.49473969 42.13142776 408.15473969 42.13142776 408.83473969 42.13142776 C410.08094766 44.45685804 411.30587382 46.79041483 412.52223969 49.13142776 C413.03174164 50.07502151 413.03174164 50.07502151 413.55153656 51.03767776 C419.88499637 63.3494501 422.5890156 75.44628377 422.44947052 89.24432755 C422.45309508 90.69128437 422.45891117 92.13823704 422.46669251 93.58517748 C422.4815773 97.51104085 422.46577718 101.43623923 422.44438589 105.3620497 C422.42675602 109.61489215 422.43829999 113.86767485 422.44605255 118.12053299 C422.45667707 126.43003879 422.44085466 134.73928932 422.41591429 143.04875623 C422.38787761 152.73461614 422.38664094 162.42042551 422.38647128 172.10631926 C422.38528627 189.38858755 422.36037858 206.67073914 422.32180023 223.95296097 C422.28441983 240.70948562 422.26320146 257.46592546 422.26027679 274.22249222 C422.26009398 275.25566147 422.25991117 276.28883072 422.25972282 277.35330813 C422.25954385 278.38472383 422.25936488 279.41613953 422.25918049 280.47881025 C422.25881506 282.5556707 422.25844268 284.63253115 422.25806332 286.70939159 C422.2578778 287.73371569 422.25769229 288.7580398 422.25750115 289.81340402 C422.25392945 305.80699295 422.23548119 321.80056886 422.21557007 337.79414452 C422.20855611 343.58314391 422.20376849 349.37214022 422.20060872 355.16114294 C422.19555532 364.33925287 422.1841004 373.51730397 422.15930843 382.69538366 C422.14810605 386.88690008 422.13997094 391.07835894 422.14044189 395.26989174 C422.14075115 399.10940903 422.13176987 402.94879028 422.11547387 406.78827197 C422.1111708 408.17421014 422.11017687 409.56016354 422.11289995 410.94610571 C422.15469667 435.72217865 410.79872931 454.84414543 393.89723969 472.38142776 C389.23778728 476.93285577 384.31288272 480.62886702 378.83473969 484.13142776 C378.0677475 484.65478714 377.30075531 485.17814651 376.51052094 485.71736526 C366.5932435 492.17588974 354.48711431 496.24923681 342.63076687 496.26285553 C341.37418961 496.26669667 340.11761234 496.27053782 338.82295698 496.27449536 C337.43104607 496.27371517 336.03913522 496.27283639 334.64722443 496.27186966 C333.16653255 496.27445407 331.68584136 496.27746744 330.20515114 496.28087306 C326.13504517 496.28893764 322.06495685 496.29073233 317.99484384 496.29147053 C313.60542667 496.29332206 309.21601864 496.30086997 304.82660675 496.30760574 C295.22723095 496.3211864 285.62785933 496.32721355 276.02847552 496.3316164 C270.03301387 496.33437964 264.03755384 496.33861718 258.04209328 496.34312057 C241.43850143 496.35531358 224.83491088 496.36561239 208.23131466 496.36899567 C207.16866896 496.36921523 206.10602326 496.3694348 205.01117617 496.36966102 C203.94600091 496.3698793 202.88082564 496.37009757 201.78337234 496.37032247 C199.62495768 496.37076593 197.46654302 496.37121249 195.30812836 496.37166214 C193.70215923 496.37199428 193.70215923 496.37199428 192.06374628 496.37233314 C174.72246102 496.37627962 157.38121783 496.39372893 140.03994881 496.41702166 C122.23073547 496.44074955 104.42154321 496.4531982 86.61231381 496.45436358 C76.61525467 496.45527961 66.61825031 496.46101354 56.62120628 496.4791832 C48.10680585 496.49460367 39.59247713 496.49969321 31.07806539 496.49144509 C26.73634367 496.48754531 22.39476628 496.48843526 18.05306244 496.50250244 C14.0722902 496.51528183 10.09177014 496.51400865 6.11099804 496.50191173 C4.67688991 496.49996168 3.24276367 496.50300092 1.80868094 496.51175609 C-9.93325993 496.5788576 -20.5589098 495.04857337 -31.04026031 489.56892776 C-31.70735016 489.22668167 -32.37444 488.88443558 -33.06174469 488.53181839 C-43.5679605 482.97555099 -53.23736458 476.03359502 -61.16526031 467.13142776 C-61.68990875 466.55134964 -62.21455719 465.97127151 -62.75510406 465.37361526 C-66.16526031 461.46279896 -66.16526031 461.46279896 -66.16526031 459.13142776 C-66.82526031 459.13142776 -67.48526031 459.13142776 -68.16526031 459.13142776 C-77.99085641 442.36590822 -84.80652555 427.3264258 -84.67992401 407.38879776 C-84.6852636 405.9575178 -84.69233733 404.52624346 -84.70097107 403.09497958 C-84.71943888 399.20296165 -84.71334891 395.31132831 -84.70281804 391.41929543 C-84.69578036 387.20578362 -84.71185846 382.99234725 -84.72481537 378.77885818 C-84.74638555 370.53997912 -84.74634631 362.30123856 -84.73818982 354.06234058 C-84.73187277 347.36086181 -84.73304245 340.65942323 -84.7394619 333.95794487 C-84.74036355 333.00169967 -84.74126521 332.04545447 -84.74219419 331.06023214 C-84.74404552 329.11719203 -84.74590808 327.17415194 -84.74778175 325.23111186 C-84.76433629 307.03656244 -84.75566142 288.84209071 -84.73879617 270.64754597 C-84.72410557 254.03117977 -84.73872278 237.4149945 -84.76756633 220.7986516 C-84.79701663 203.70440901 -84.80791594 186.61024976 -84.79838413 169.51598293 C-84.79736166 167.57944128 -84.79636705 165.64289963 -84.79540062 163.70635796 C-84.79492423 162.75373363 -84.79444784 161.8011093 -84.79395701 160.81961757 C-84.79180009 154.13434942 -84.80155854 147.44916082 -84.81617165 140.76391029 C-84.83375876 132.60481008 -84.8334868 124.44594028 -84.81081999 116.28684887 C-84.79973469 112.13068259 -84.79638405 107.97492127 -84.8151207 103.81877327 C-84.8966959 84.30032245 -84.81790744 66.31772129 -74.60276031 48.94392776 C-74.17785309 48.20400589 -73.75294586 47.46408401 -73.31516266 46.70174026 C-65.07737401 32.84388951 -52.90320157 19.18000836 -38.16526031 12.13142776 C-37.50526031 12.13142776 -36.84526031 12.13142776 -36.16526031 12.13142776 C-36.16526031 11.47142776 -36.16526031 10.81142776 -36.16526031 10.13142776 C-24.70299335 4.52663189 -12.89754571 0.01526251 0 0 Z " fill="#002940" transform="translate(87.1652603149414,7.868572235107422)"/>
<path d="M0 0 C1.07890113 -0.00630794 2.15780227 -0.01261588 3.26939738 -0.01911497 C5.06176437 -0.02190797 5.06176437 -0.02190797 6.89034081 -0.02475739 C8.15230636 -0.03055077 9.41427191 -0.03634416 10.71447885 -0.0423131 C14.22899717 -0.0581932 17.74350849 -0.06768898 21.25805163 -0.07607794 C24.26975422 -0.08407307 27.28143783 -0.09576551 30.29312785 -0.10749274 C41.08253677 -0.1494335 51.87196796 -0.17661031 62.66142845 -0.20114899 C63.93843444 -0.20411134 63.93843444 -0.20411134 65.24123853 -0.20713353 C82.14133754 -0.24629459 99.04144386 -0.28000639 115.9415741 -0.30221558 C119.65857644 -0.30718501 123.37557867 -0.31222931 127.0925808 -0.31735992 C128.01644189 -0.3186306 128.94030298 -0.31990127 129.89215986 -0.32121044 C144.85674699 -0.34256867 159.82111446 -0.39156061 174.78559108 -0.45160407 C190.14481932 -0.51272381 205.50393424 -0.54740336 220.86328256 -0.55668879 C229.48882594 -0.56260113 238.11399737 -0.58036764 246.73941994 -0.62807465 C254.08589397 -0.66866996 261.43193539 -0.6855556 268.77851661 -0.67142183 C272.52661935 -0.6649532 276.27380067 -0.66980761 280.02176094 -0.70529556 C284.08763233 -0.74348413 288.15149532 -0.72729483 292.21748924 -0.70590973 C293.39901624 -0.7256175 294.58054324 -0.74532527 295.79787409 -0.76563025 C302.68473413 -0.67405668 306.47842906 0.36547591 311.43664873 5.25055647 C315.03338807 9.79274898 315.21467673 13.64990631 315.16191673 19.30764008 C315.16220879 20.12752411 315.16250084 20.94740814 315.16280174 21.79213715 C315.16141027 24.49760838 315.14585765 27.20280298 315.13017845 29.90822601 C315.12644767 31.7858083 315.12360101 33.66339254 315.12160301 35.54097748 C315.11397166 40.47952919 315.0943274 45.41796302 315.07219505 50.3564682 C315.05172593 55.39714208 315.04259901 60.43783504 315.0325222 65.47853851 C315.01108108 75.3666111 314.9769511 85.25459625 314.93486595 95.14260101 C314.27486595 95.14260101 313.61486595 95.14260101 312.93486595 95.14260101 C312.87299095 95.88510101 312.81111595 96.62760101 312.74736595 97.39260101 C311.51512712 101.56325552 308.71305086 103.08049116 305.09822214 105.23962837 C302.47137801 106.33605826 300.47877484 106.39671977 297.63366699 106.40266323 C296.55303376 106.40972882 295.47240052 106.41679441 294.35902083 106.42407411 C293.17246189 106.42165903 291.98590295 106.41924394 290.76338768 106.41675568 C289.5023857 106.42199235 288.24138371 106.42722903 286.94216955 106.4326244 C283.43968299 106.44681654 279.93728512 106.44846747 276.43477392 106.44802749 C272.65826103 106.44967461 268.88178479 106.46273906 265.10529137 106.47422028 C256.84712481 106.49707643 248.58898394 106.50499135 240.33079004 106.51004672 C235.1754388 106.51330263 230.02009502 106.51982442 224.864748 106.52704811 C210.59364182 106.54661383 196.32254258 106.56301854 182.05142212 106.56592464 C180.68140909 106.566206 180.68140909 106.566206 179.28371903 106.56649304 C177.43212565 106.56685929 175.58053227 106.56722299 173.72893889 106.56758415 C172.80979521 106.56776696 171.89065153 106.56794977 170.94365501 106.56813812 C170.02339092 106.56831867 169.10312682 106.56849922 168.15497594 106.56868524 C153.23770907 106.57222818 138.32058645 106.59925815 123.40336962 106.63663601 C108.09153824 106.67469601 92.77977848 106.69408195 77.46789873 106.69438416 C68.86936883 106.6949692 60.27101106 106.70349162 51.67252541 106.73238182 C44.35206723 106.75686476 37.03184396 106.76419952 29.71135594 106.74913429 C25.97582138 106.74195293 22.24075096 106.74287484 18.5052681 106.76554489 C14.45660609 106.78988042 10.40900537 106.77553402 6.36031151 106.75733185 C5.17821401 106.77053182 3.99611652 106.78373178 2.77819788 106.79733175 C-6.07786792 106.7060784 -6.07786792 106.7060784 -9.72599125 103.74793339 C-14.42226223 98.51723656 -15.5077351 94.92842579 -15.4374485 87.94338226 C-15.44109917 87.13138367 -15.44474983 86.31938507 -15.44851112 85.48278046 C-15.45659728 82.80667257 -15.44302272 80.13117389 -15.4284153 77.45510101 C-15.42789646 75.59092459 -15.42841508 73.7267476 -15.42992592 71.86257172 C-15.42983628 67.95876123 -15.41942423 64.05515763 -15.40131569 60.15139008 C-15.37862892 55.15114411 -15.37808538 50.15120032 -15.38483334 45.15091705 C-15.38817718 41.30244519 -15.38153537 37.45404202 -15.3717041 33.60558319 C-15.367859 31.76201995 -15.36670103 29.91844907 -15.36828995 28.07488251 C-15.36866142 25.4970472 -15.35601746 22.91959711 -15.33979225 20.34181976 C-15.34226967 19.58218933 -15.34474709 18.8225589 -15.34729958 18.03990936 C-15.29295161 12.62079543 -14.63430053 8.95694976 -11.06513405 4.83010101 C-9.06513405 3.14260101 -9.06513405 3.14260101 -7.06513405 3.14260101 C-7.06513405 2.48260101 -7.06513405 1.82260101 -7.06513405 1.14260101 C-4.54725482 -0.1163386 -2.81939211 0.01027922 0 0 Z " fill="#F3F6F7" transform="translate(107.06513404846191,89.8573989868164)"/>
<path d="M0 0 C1.0669586 -0.00507454 2.1339172 -0.01014909 3.23320788 -0.0153774 C4.40964258 -0.01587516 5.58607727 -0.01637292 6.79816151 -0.01688576 C8.66789016 -0.02345914 8.66789016 -0.02345914 10.57539111 -0.03016531 C14.04204883 -0.04213362 17.50869262 -0.04777985 20.97536695 -0.05234647 C24.71170775 -0.05830157 28.44803189 -0.06991162 32.18436146 -0.08063698 C41.21102921 -0.10516275 50.23770248 -0.11978821 59.2643933 -0.13269705 C61.81367217 -0.13640879 64.3629505 -0.14038204 66.91222882 -0.14444971 C82.74098751 -0.16968559 98.56974706 -0.19173992 114.39852142 -0.20417786 C118.06516682 -0.20710758 121.7318122 -0.21006924 125.39845753 -0.21308327 C126.30979066 -0.21382932 127.22112379 -0.21457537 128.16007308 -0.21534403 C142.92408316 -0.22799844 157.68797283 -0.26122261 172.45192661 -0.3028851 C187.60778735 -0.34530314 202.76358643 -0.36887272 217.91950637 -0.37409842 C226.42981663 -0.37751264 234.9399387 -0.3892691 243.45019054 -0.42220116 C250.69777675 -0.45020104 257.9451362 -0.46120131 265.19277229 -0.4500057 C268.89007698 -0.44481885 272.58690679 -0.4477067 276.28414249 -0.47247124 C280.294923 -0.49911145 284.30465837 -0.48690451 288.31549549 -0.47098732 C289.48077658 -0.48486941 290.64605767 -0.49875149 291.8466503 -0.51305425 C298.78569687 -0.44512891 303.55372316 0.50912353 308.87428761 5.13701439 C312.76250455 9.58043662 313.46016644 13.29904666 313.40773487 19.03496361 C313.41635044 19.80327507 313.42496601 20.57158653 313.43384266 21.36318016 C313.45644705 23.88970203 313.44977338 26.41510944 313.44069386 28.94170189 C313.44593266 30.70758453 313.45221009 32.47346437 313.45947742 34.23933983 C313.46987199 37.93632252 313.46533499 41.63292011 313.45070362 45.32988548 C313.43353465 50.05328256 313.4569921 54.77546099 313.49219322 59.49872208 C313.51422221 63.14491811 313.51271221 66.79082517 313.50442791 70.43706703 C313.50361106 72.17768883 313.51042334 73.91833241 313.52519894 75.65889168 C313.64284671 92.02859024 313.64284671 92.02859024 309.43420887 97.63167381 C308.66204784 98.3768174 308.66204784 98.3768174 307.87428761 99.13701439 C307.26892642 99.81786346 306.66356524 100.49871254 306.03985977 101.20019341 C301.11443359 104.21376198 296.33136581 103.68109021 290.66521168 103.63149071 C289.41222794 103.63631954 288.1592442 103.64114837 286.86829126 103.64612353 C283.39265358 103.65894801 279.91748201 103.64681696 276.44187498 103.63059497 C272.69263091 103.61743771 268.94343882 103.6273387 265.19418812 103.63435936 C257.84975711 103.64444439 250.50550618 103.63315842 243.16109754 103.61465876 C234.60828276 103.59389 226.05550691 103.59403118 217.50267164 103.59500392 C202.24076343 103.59600534 186.97893901 103.5776785 171.71706104 103.54863548 C156.90877728 103.52047023 142.10056728 103.50629352 127.29225636 103.50761986 C125.92465205 103.50773973 125.92465205 103.50773973 124.52941938 103.50786202 C123.16417812 103.50798308 123.16417812 103.50798308 121.77135623 103.50810659 C104.9140923 103.50948686 88.05685971 103.49770146 71.19960595 103.47980016 C65.23864295 103.47377011 59.27768572 103.47164133 53.31672001 103.47073555 C46.05015673 103.46937021 38.78364624 103.46042623 31.51710536 103.44206993 C27.80994722 103.43284528 24.10285654 103.42673875 20.39568615 103.42925835 C16.37615941 103.43185773 12.35683222 103.41893938 8.33733082 103.40443993 C7.16661018 103.40753713 5.99588954 103.41063433 4.78969252 103.41382539 C-8.10398388 103.33685298 -8.10398388 103.33685298 -13.09562778 99.70290279 C-17.00750784 95.10300971 -17.99361671 91.7978772 -17.8703413 85.81841087 C-17.87764263 85.01748009 -17.88494396 84.2165493 -17.89246655 83.39134789 C-17.90858489 80.76271897 -17.88154704 78.13659274 -17.85227489 75.50810814 C-17.85123662 73.67160608 -17.85227618 71.83510178 -17.85529613 69.99860191 C-17.85511712 66.15776256 -17.83434691 62.31776656 -17.79807568 58.47710228 C-17.75266859 53.56193785 -17.7516227 48.64800259 -17.76511097 43.73268604 C-17.77180343 39.94328509 -17.75850709 36.15416279 -17.7388525 32.36481476 C-17.73117272 30.55279118 -17.72884202 28.74073655 -17.73202419 26.92869949 C-17.73276861 24.39394308 -17.7074465 21.86074485 -17.6750288 19.32622337 C-17.67998363 18.58268105 -17.68493847 17.83913872 -17.69004345 17.0730648 C-17.58615621 11.96649405 -16.3142337 9.08580708 -13.12571239 5.13701439 C-8.79409592 1.22799464 -5.77726771 0.01457098 0 0 Z " fill="#F2F5F6" transform="translate(109.12571239471436,324.8629856109619)"/>
<path d="M0 0 C1.25398702 -0.00779995 2.50797404 -0.01559991 3.79996067 -0.02363622 C7.26921265 -0.04446436 10.73777488 -0.03421347 14.20702899 -0.01870513 C17.95288055 -0.0073786 21.69861463 -0.02486081 25.44444275 -0.03860474 C32.77825482 -0.06082855 40.11181092 -0.05603967 47.44563299 -0.04154153 C53.40699427 -0.03024503 59.36828387 -0.02872017 65.32965279 -0.03416061 C66.17843047 -0.03492678 67.02720816 -0.03569294 67.90170639 -0.03648233 C69.62604882 -0.03808097 71.35039123 -0.03970204 73.07473362 -0.04134528 C89.24125792 -0.0556005 105.40764041 -0.03921411 121.57414145 -0.01234345 C135.44069841 0.0099911 149.30704606 0.00611827 163.17359924 -0.01693726 C179.28110499 -0.04370627 195.38848644 -0.05422297 211.49601132 -0.03887594 C213.21428078 -0.03728322 214.93255027 -0.03571136 216.65081978 -0.03416061 C217.91890664 -0.03300355 217.91890664 -0.03300355 219.21261142 -0.03182311 C225.16514208 -0.0275091 231.1175938 -0.03478627 237.07011223 -0.04655838 C244.32679238 -0.06059435 251.58320218 -0.05676071 258.83985143 -0.03015466 C262.54120449 -0.01703039 266.24210711 -0.01183976 269.94345665 -0.02840042 C273.95846333 -0.04609247 277.9723367 -0.02494256 281.98730469 0 C283.73697002 -0.01673041 283.73697002 -0.01673041 285.52198213 -0.03379881 C292.39694281 0.04912408 297.33614479 0.93751635 302.55714417 5.63491821 C306.42797044 10.18415336 307.12685763 14.96190476 307.01124573 20.77334595 C307.01182983 21.55465378 307.01241394 22.33596161 307.01301575 23.14094543 C307.01024876 25.70060037 306.97922426 28.25906273 306.94776917 30.81851196 C306.94030181 32.60212061 306.93461121 34.38573749 306.93061829 36.1693573 C306.91540086 40.84664867 306.876153 45.52343725 306.83180237 50.20053101 C306.79076535 54.98002319 306.77258932 59.75959722 306.75245667 64.53921509 C306.70965465 73.90466946 306.64145088 83.2697519 306.55714417 92.63491821 C305.89714417 92.63491821 305.23714417 92.63491821 304.55714417 92.63491821 C304.51589417 93.35679321 304.47464417 94.07866821 304.43214417 94.82241821 C303.19436311 98.80100018 300.88013272 100.24236646 297.55714417 102.63491821 C294.54453407 103.63912158 292.54332462 103.76309176 289.3946104 103.76913929 C288.31945162 103.77359713 287.24429283 103.77805498 286.13655347 103.78264791 C284.35818222 103.78237136 284.35818222 103.78237136 282.54388428 103.78208923 C280.65978827 103.78760427 280.65978827 103.78760427 278.73762971 103.79323071 C275.24430511 103.80325384 271.75099769 103.806968 268.25766075 103.80962002 C264.49272994 103.81352207 260.72781275 103.82310039 256.96289062 103.83183289 C247.86800521 103.85159867 238.77311867 103.86166302 229.67821714 103.87056068 C225.39683918 103.87494283 221.11546245 103.88030977 216.83408546 103.88554955 C202.60505397 103.90256088 188.37602325 103.91705604 174.14698315 103.92429829 C170.45419501 103.92620822 166.76140688 103.92812855 163.06861877 103.93008423 C161.6918603 103.93080984 161.6918603 103.93080984 160.28728852 103.93155011 C145.4120168 103.93985411 130.53682539 103.96519767 115.66158875 103.99766491 C100.39499565 104.03071517 85.1284434 104.04874515 69.86181432 104.05194253 C61.2878832 104.05410936 52.71406925 104.06288346 44.14017296 104.0884037 C36.83984865 104.11008285 29.53966999 104.11817485 22.23931714 104.10843692 C18.51397392 104.10388426 14.78893136 104.10583409 11.06362915 104.12519836 C7.0259916 104.14600516 2.98902431 104.13587061 -1.04864502 104.12266541 C-2.22753369 104.13363465 -3.40642235 104.1446039 -4.62103492 104.15590554 C-10.85548182 104.10650757 -14.76074172 103.92370664 -19.44285583 99.63491821 C-23.33733292 95.20887713 -24.02602612 90.37454478 -23.96043396 84.60757446 C-23.96744324 83.83751068 -23.97445251 83.0674469 -23.98167419 82.27404785 C-23.99916832 79.74812937 -23.98766278 77.22334655 -23.97410583 74.69741821 C-23.97680323 72.93057034 -23.98068772 71.16372392 -23.98570251 69.3968811 C-23.99158592 65.70166836 -23.98307217 62.00684352 -23.96434021 58.31167603 C-23.94155118 53.58722555 -23.95468051 48.86368414 -23.97863007 44.13926697 C-23.99311951 40.49312555 -23.98846769 36.84719784 -23.9781189 33.2010498 C-23.97546029 31.45961396 -23.97869075 29.7181584 -23.98803711 27.97674561 C-23.998255 25.53806541 -23.98263035 23.10083483 -23.96043396 20.66226196 C-23.97257935 19.59441971 -23.97257935 19.59441971 -23.98497009 18.50500488 C-23.89591171 13.19402388 -22.62764198 9.74273588 -19.44285583 5.63491821 C-13.29995461 -0.06874972 -8.16264536 -0.07790276 0 0 Z " fill="#F2F5F6" transform="translate(115.44285583496094,208.36508178710938)"/>
<path d="M0 0 C1.03465897 -0.0112793 2.06931793 -0.02255859 3.1353302 -0.03417969 C4.82954353 -0.0220343 4.82954353 -0.0220343 6.5579834 -0.00964355 C7.75183151 -0.01665283 8.94567963 -0.02366211 10.17570496 -0.03088379 C13.44651263 -0.04547126 16.7166727 -0.04205418 19.98747063 -0.02936745 C23.41158273 -0.01923466 26.83565181 -0.02863388 30.25976562 -0.03491211 C36.00980386 -0.04218775 41.75963654 -0.03260319 47.50964355 -0.0135498 C54.15585061 0.00821904 60.80156685 0.00116759 67.44776201 -0.02085543 C73.15575627 -0.03901199 78.86360284 -0.04156658 84.57161665 -0.03110075 C87.98002129 -0.02486712 91.38819529 -0.02402628 94.79658508 -0.0372467 C98.59629717 -0.04738168 102.39506088 -0.03195187 106.19470215 -0.00964355 C107.3241777 -0.01774048 108.45365326 -0.0258374 109.61735535 -0.03417969 C111.1693438 -0.01726074 111.1693438 -0.01726074 112.75268555 0 C113.6508474 0.0015081 114.54900925 0.0030162 115.47438812 0.00457001 C118.67843205 0.67602405 119.87699718 1.96277357 121.87634277 4.50793457 C122.43884277 7.94543457 122.43884277 7.94543457 121.87634277 11.50793457 C119.43884277 14.38293457 119.43884277 14.38293457 116.87634277 16.50793457 C116.38134277 17.00293457 116.38134277 17.00293457 115.87634277 17.50793457 C114.31675338 17.61251702 112.75245064 17.64756787 111.18937683 17.65510559 C110.17567017 17.66226089 109.1619635 17.6694162 108.11753845 17.67678833 C106.99597855 17.67947723 105.87441864 17.68216614 104.71887207 17.68493652 C103.54496918 17.69150772 102.37106628 17.69807892 101.16159058 17.70484924 C97.93214403 17.72122106 94.70273146 17.73281756 91.47325492 17.74105477 C89.45656624 17.7462005 87.4398822 17.75227645 85.42319679 17.7585659 C79.11634406 17.77762543 72.80950309 17.79185432 66.50262707 17.80017787 C59.21716476 17.80995094 51.93200622 17.83626867 44.64665097 17.87667876 C39.01943599 17.9068225 33.39230816 17.92164511 27.76501399 17.92495888 C24.40234056 17.92731164 21.03999137 17.93630019 17.6774044 17.96142006 C13.92535326 17.9856526 10.17410178 17.98487516 6.42199707 17.97790527 C5.30650986 17.99071533 4.19102264 18.00352539 3.04173279 18.01672363 C2.01956665 18.00977982 0.99740051 18.002836 -0.05574036 17.99568176 C-1.38670478 17.99926429 -1.38670478 17.99926429 -2.74455738 18.0029192 C-5.90653954 17.34505166 -7.11305827 15.97739153 -9.12365723 13.50793457 C-9.65490723 11.28918457 -9.65490723 11.28918457 -9.62365723 9.00793457 C-9.63396973 8.25512207 -9.64428223 7.50230957 -9.65490723 6.72668457 C-8.42931381 1.60802972 -4.92099705 0.00826284 0 0 Z " fill="#0A2D43" transform="translate(270.1236572265625,152.4920654296875)"/>
<path d="M0 0 C1.72786995 -0.0131424 1.72786995 -0.0131424 3.49064636 -0.02655029 C7.29297711 -0.04853137 11.09414208 -0.03399443 14.89648438 -0.01708984 C17.54154686 -0.0204583 20.18660785 -0.02531117 22.83166504 -0.03158569 C28.37309363 -0.0406704 33.91418853 -0.02872578 39.45556641 -0.00488281 C45.85307956 0.02232679 52.2497959 0.01351175 58.64728975 -0.01401484 C64.81328132 -0.03947873 70.97892091 -0.03673302 77.14494324 -0.02210617 C79.76360689 -0.01877133 82.38229089 -0.0228619 85.00093079 -0.03450394 C88.6613243 -0.04720617 92.32018907 -0.02784055 95.98046875 0 C97.60307869 -0.01518173 97.60307869 -0.01518173 99.25846863 -0.03067017 C107.45239478 0.08475757 107.45239478 0.08475757 111.1619873 3.05630493 C114.29726832 6.54496876 114.29726832 6.54496876 114.17773438 9.70947266 C113.49023438 13.64697266 113.49023438 13.64697266 111.66052246 15.86170959 C106.88590463 18.5504081 102.47074464 18.19664868 97.078125 18.14868164 C95.34806465 18.15678612 95.34806465 18.15678612 93.58305359 18.16505432 C89.77060282 18.17756137 85.95890425 18.16103629 82.14648438 18.14306641 C79.49758884 18.14322135 76.84872033 18.14465563 74.1998291 18.1474762 C68.64826679 18.15017622 63.09692095 18.13672083 57.54541016 18.11352539 C51.13272448 18.08691675 44.72040066 18.08516921 38.3076787 18.09691375 C32.13160111 18.10770381 25.95565404 18.1014949 19.77958679 18.08735847 C17.15451946 18.08283961 14.52944148 18.08251095 11.90437317 18.08642387 C8.2368075 18.08933154 4.56983456 18.07284912 0.90234375 18.05102539 C-0.18456253 18.05552704 -1.27146881 18.06002869 -2.39131165 18.06466675 C-11.68485636 17.9727033 -11.68485636 17.9727033 -15.50976562 14.64697266 C-17.860251 11.12124459 -18.17374379 9.79683621 -17.50976562 5.64697266 C-12.36934096 -0.25607455 -7.51171232 -0.07028233 0 0 Z " fill="#062B41" transform="translate(278.509765625,241.35302734375)"/>
<path d="M0 0 C2.16704459 -0.02985409 4.33457742 -0.03160103 6.5017395 -0.01205444 C7.68408173 -0.02081604 8.86642395 -0.02957764 10.08459473 -0.03860474 C13.32879516 -0.05686039 16.57197811 -0.05255385 19.81616354 -0.03670931 C23.21179445 -0.02405395 26.60735715 -0.03578991 30.00299072 -0.04364014 C35.70777597 -0.05274036 41.41223774 -0.04074204 47.11697388 -0.01693726 C53.70813725 0.01024922 60.29852674 0.0014803 66.88967121 -0.02606928 C72.5501275 -0.04878029 78.21035113 -0.05195009 83.87083828 -0.03887594 C87.25083219 -0.03108879 90.63046278 -0.03001835 94.0104332 -0.04655838 C97.78150593 -0.05924451 101.55109024 -0.03991609 105.322052 -0.01205444 C106.99920288 -0.02723618 106.99920288 -0.02723618 108.7102356 -0.04272461 C116.25133105 0.06059525 116.25133105 0.06059525 120.23468018 2.956604 C122.63644765 6.51724387 122.7936163 8.42189253 122.04129028 12.63491821 C119.98274971 15.67539644 118.34356286 17.38227358 114.66085625 18.09672928 C111.57370641 18.28844161 108.5227973 18.31016592 105.42971802 18.28189087 C104.25523102 18.29065247 103.08074402 18.29941406 101.8706665 18.30844116 C98.65763696 18.3266545 95.44564036 18.32241939 92.23262668 18.30654573 C88.86723624 18.2938652 85.5019136 18.30563251 82.13652039 18.31347656 C76.48656874 18.32256571 70.83694419 18.31060361 65.18704224 18.28677368 C58.65716315 18.25955009 52.12806434 18.26838754 45.59820408 18.29590571 C39.98782821 18.31860143 34.37768711 18.32179518 28.76728016 18.30871236 C25.41808694 18.30092186 22.06926045 18.29986482 18.72009087 18.31639481 C14.98734297 18.32906452 11.25610329 18.30977769 7.52346802 18.28189087 C6.41426498 18.29201202 5.30506195 18.30213318 4.1622467 18.31256104 C-3.2933221 18.20913869 -3.2933221 18.20913869 -6.64900208 15.31323242 C-8.77484642 10.96594229 -8.53034276 7.52257412 -7.14764404 2.956604 C-4.51171645 0.16081631 -3.72977941 0.23487586 0 0 Z " fill="#002941" transform="translate(269.9587097167969,356.3650817871094)"/>
<path d="M0 0 C1.03465897 -0.0112793 2.06931793 -0.02255859 3.1353302 -0.03417969 C4.82954353 -0.0220343 4.82954353 -0.0220343 6.5579834 -0.00964355 C7.75183151 -0.01665283 8.94567963 -0.02366211 10.17570496 -0.03088379 C13.44651263 -0.04547126 16.7166727 -0.04205418 19.98747063 -0.02936745 C23.41158273 -0.01923466 26.83565181 -0.02863388 30.25976562 -0.03491211 C36.00980386 -0.04218775 41.75963654 -0.03260319 47.50964355 -0.0135498 C54.15585061 0.00821904 60.80156685 0.00116759 67.44776201 -0.02085543 C73.15575627 -0.03901199 78.86360284 -0.04156658 84.57161665 -0.03110075 C87.98002129 -0.02486712 91.38819529 -0.02402628 94.79658508 -0.0372467 C98.59629717 -0.04738168 102.39506088 -0.03195187 106.19470215 -0.00964355 C107.3241777 -0.01774048 108.45365326 -0.0258374 109.61735535 -0.03417969 C111.1693438 -0.01726074 111.1693438 -0.01726074 112.75268555 0 C113.6508474 0.0015081 114.54900925 0.0030162 115.47438812 0.00457001 C118.6659747 0.67341344 119.87176825 1.9869028 121.87634277 4.50793457 C122.54608699 8.44268185 122.22744806 9.98127665 120.00134277 13.32043457 C117.77521951 15.61203205 116.89118624 16.4443736 113.73330784 16.64215565 C112.83937793 16.64642913 111.94544802 16.65070261 111.02442932 16.65510559 C109.48701836 16.66583855 109.48701836 16.66583855 107.91854858 16.67678833 C106.78966217 16.67947723 105.66077576 16.68216614 104.49768066 16.68493652 C102.71956749 16.69479332 102.71956749 16.69479332 100.90553284 16.70484924 C97.64935401 16.72120217 94.39320878 16.73280991 91.13700032 16.74105477 C89.10373062 16.74620384 87.07046549 16.75227952 85.03719902 16.7585659 C78.67855996 16.77761506 72.31993251 16.79184841 65.96127039 16.80017787 C58.61524895 16.80995918 51.26952812 16.83630271 43.92361265 16.87667876 C38.24883516 16.90680233 32.57414404 16.92164302 26.89928812 16.92495888 C23.50815814 16.92731314 20.11734941 16.93632173 16.72630501 16.96142006 C12.94542246 16.98562066 9.16533477 16.98488138 5.38439941 16.97790527 C4.25753723 16.99071533 3.13067505 17.00352539 1.96966553 17.01672363 C0.94190506 17.00977982 -0.08585541 17.002836 -1.14476013 16.99568176 C-2.03906707 16.99807012 -2.933374 17.00045847 -3.85478115 17.0029192 C-6.12365723 16.50793457 -6.12365723 16.50793457 -7.90773869 14.60245037 C-9.21096212 12.35754499 -9.55613101 11.08135728 -9.56115723 8.50793457 C-9.58049316 7.84793457 -9.5998291 7.18793457 -9.61975098 6.50793457 C-8.37963405 1.50840808 -4.76294363 0.00799745 0 0 Z " fill="#002942" transform="translate(270.1236572265625,382.4920654296875)"/>
<path d="M0 0 C1.01645599 -0.00571014 2.03291199 -0.01142029 3.08016968 -0.01730347 C4.19453903 -0.01842133 5.30890839 -0.01953918 6.45704651 -0.02069092 C7.63124146 -0.02565582 8.8054364 -0.03062073 10.01521301 -0.03573608 C13.23628148 -0.04784304 16.45731365 -0.05530212 19.67840075 -0.05974674 C21.69074518 -0.06267892 23.70308393 -0.06678395 25.71542549 -0.07125092 C32.01159623 -0.08492075 38.30775397 -0.09459058 44.60393852 -0.09845281 C51.87234534 -0.102936 59.14056433 -0.12049797 66.40891403 -0.1494534 C72.02767811 -0.17106073 77.64638929 -0.18115653 83.26519448 -0.18249393 C86.62106776 -0.18354241 89.97676436 -0.18945949 93.33259392 -0.20731354 C97.07474505 -0.22431104 100.81643526 -0.22250915 104.55860901 -0.21600342 C105.67095413 -0.2252182 106.78329926 -0.23443298 107.92935181 -0.243927 C108.94862762 -0.23835785 109.96790344 -0.2327887 111.01806641 -0.22705078 C111.90277839 -0.22851734 112.78749037 -0.2299839 113.6990118 -0.2314949 C116.62575606 0.22713489 117.98237083 1.05506639 120.07252502 3.14044189 C120.94823124 8.56982043 120.94823124 8.56982043 120.07252502 11.14044189 C116.51683467 15.12706246 114.14149491 16.45619346 108.7842865 16.77536011 C106.63886774 16.80499867 104.49296061 16.80709161 102.34742737 16.78741455 C101.17279434 16.79617615 99.99816132 16.80493774 98.78793335 16.81396484 C94.91106575 16.83594515 91.03534141 16.82141106 87.15846252 16.80450439 C84.46376117 16.80561802 81.76908014 16.81271725 79.0743866 16.81900024 C73.43041108 16.82808421 67.78676325 16.81613963 62.14283752 16.79229736 C55.62032187 16.76506156 49.0985871 16.77392216 42.57609022 16.80142939 C36.96994039 16.82412417 31.36402549 16.82731972 25.75784457 16.81423604 C22.41201957 16.80644672 19.06656166 16.80538552 15.72076035 16.82191849 C11.99291039 16.83458752 8.26657077 16.81530298 4.53883362 16.78741455 C3.43120163 16.79753571 2.32356964 16.80765686 1.18237305 16.81808472 C-6.26004574 16.71469779 -6.26004574 16.71469779 -9.61677551 13.8265686 C-11.31844602 10.33919202 -11.42426046 7.97278703 -10.92747498 4.14044189 C-8.1649796 0.19401993 -4.52767441 0.01522987 0 0 Z " fill="#052B43" transform="translate(271.92747497558594,267.85955810546875)"/>
<path d="M0 0 C1.02479965 -0.0112793 2.0495993 -0.02255859 3.10545349 -0.03417969 C4.22400726 -0.02608276 5.34256104 -0.01798584 6.49501038 -0.00964355 C8.26874275 -0.02015747 8.26874275 -0.02015747 10.07830811 -0.03088379 C13.31819426 -0.04547149 16.55742664 -0.04205352 19.79730296 -0.02936745 C23.19025075 -0.0192325 26.58315521 -0.0286347 29.97610474 -0.03491211 C35.67486906 -0.04218812 41.37342599 -0.03260328 47.07215881 -0.0135498 C53.65586356 0.00820868 60.23907261 0.00117528 66.82276529 -0.02085543 C72.47897131 -0.03902342 78.13502832 -0.04156068 83.7912541 -0.03110075 C87.16783332 -0.02487206 90.54417978 -0.02401246 93.92074394 -0.0372467 C97.68672655 -0.04739457 101.45175514 -0.03193321 105.21766663 -0.00964355 C106.33419617 -0.01774048 107.45072571 -0.0258374 108.60108948 -0.03417969 C116.15354381 0.04871712 116.15354381 0.04871712 120.10879517 2.4152832 C122.0444364 4.65042918 122.62566341 5.58481704 122.60853577 8.50793457 C122.63302795 9.16793457 122.65752014 9.82793457 122.68275452 10.50793457 C121.70802624 13.06722112 120.22930682 14.20269601 117.94948196 15.65134811 C113.6055942 17.48571544 108.83652241 17.07808612 104.19593811 17.05725098 C103.02130508 17.06747284 101.84667206 17.0776947 100.63644409 17.08822632 C96.75974572 17.11599303 92.88375915 17.11410787 89.00697327 17.10949707 C86.99337329 17.11411633 84.97979085 17.12112362 82.96619856 17.12831056 C76.64117592 17.1504649 70.3163909 17.1513942 63.99134827 17.13928223 C57.46876326 17.12718427 50.94703911 17.15187729 44.42460096 17.19442236 C38.81846319 17.22964405 33.21259966 17.24165949 27.60635531 17.23514688 C24.26042206 17.2315212 20.91510397 17.23679182 17.56927109 17.26457596 C13.84128057 17.28917487 10.11530121 17.2758052 6.38734436 17.25256348 C5.27971237 17.26785095 4.17208038 17.28313843 3.03088379 17.29888916 C0.19934198 17.25975125 -2.32693566 17.17414615 -5.07896423 16.50793457 C-8.01874933 13.38660743 -8.90765127 11.57864059 -9.57896423 7.38293457 C-8.62277189 1.88482858 -5.32588295 0.00902988 0 0 Z " fill="#0A2E45" transform="translate(270.07896423339844,127.4920654296875)"/>
<path d="M0 0 C0.680625 -0.00257813 1.36125 -0.00515625 2.0625 -0.0078125 C4 0.125 4 0.125 7 1.125 C7 1.785 7 2.445 7 3.125 C7.5775 3.351875 8.155 3.57875 8.75 3.8125 C11.72046866 5.54527339 13.18020872 7.20033544 15 10.125 C15.71585056 14.95699127 14.99203135 18.34210704 12.3203125 22.48046875 C9.4144027 26.09995995 6.37547554 28.52258624 1.828125 29.67578125 C-1.90627196 30.00415064 -4.15955222 29.68482609 -7.31640625 27.58203125 C-9.32043228 25.84329668 -11.18355685 24.05728774 -13 22.125 C-13.33 21.795 -13.66 21.465 -14 21.125 C-14.71565863 16.04219723 -15.15772799 11.14248846 -12.54296875 6.5859375 C-8.74601864 2.18946896 -5.96327515 -0.02258816 0 0 Z " fill="#0A2E45" transform="translate(134,243.875)"/>
<path d="M0 0 C4.44202595 0.63960479 6.01529123 2.09697017 8.95703125 5.42578125 C11.30822524 8.95257224 11.17146577 10.4545761 11.08203125 14.61328125 C11.06398437 15.69996094 11.0459375 16.78664063 11.02734375 17.90625 C11.00414062 18.73769531 10.9809375 19.56914062 10.95703125 20.42578125 C10.29703125 20.42578125 9.63703125 20.42578125 8.95703125 20.42578125 C8.77140625 21.16828125 8.58578125 21.91078125 8.39453125 22.67578125 C6.42645571 26.44079534 3.89215735 28.11656629 -0.04296875 29.42578125 C-4.56381395 30.13064421 -7.67789509 29.41217168 -11.39453125 26.7265625 C-15.46226203 22.72351295 -17.57378772 19.45024234 -17.85546875 13.67578125 C-17.56138796 9.77648782 -17.19022455 8.6168158 -14.73046875 5.42578125 C-13.84359375 4.76578125 -12.95671875 4.10578125 -12.04296875 3.42578125 C-11.61242187 2.89984375 -11.181875 2.37390625 -10.73828125 1.83203125 C-7.61549852 -0.75829544 -3.8825405 -0.08919984 0 0 Z " fill="#0B2D44" transform="translate(137.04296875,360.57421875)"/>
<path d="M0 0 C3.81953094 2.30012633 7.9668355 4.93367101 10 9 C10.09608608 10.83128771 10.12982579 12.66619959 10.125 14.5 C10.12886719 15.96953125 10.12886719 15.96953125 10.1328125 17.46875 C10 20 10 20 9 22 C8.34 22 7.68 22 7 22 C6.773125 22.598125 6.54625 23.19625 6.3125 23.8125 C4.52898085 26.78503192 3.23051382 27.69404761 0 29 C-6.77815121 29.20912626 -11.21704668 27.40687855 -16.3125 23 C-18.89612102 18.40689596 -18.98513447 14.13887309 -18 9 C-14.26683474 2.22009019 -7.8735487 -1.85826761 0 0 Z " fill="#072C43" transform="translate(138,128)"/>
<path d="M0 0 C4.4764207 2.44311693 8.13557807 5.13983216 10 10 C10.74055458 14.25106812 10.94120289 18.27813384 8.83203125 22.13671875 C6.07146788 25.52177975 3.39596141 28.18214671 -1 29 C-5.8318913 29.13250159 -9.00697581 28.77714937 -12.875 25.75 C-13.57625 24.8425 -14.2775 23.935 -15 23 C-15.598125 22.236875 -16.19625 21.47375 -16.8125 20.6875 C-18.40931866 17.07364725 -18.67265802 13.84699924 -18 10 C-14.4184086 2.83681721 -8.29851545 -2.07462886 0 0 Z " fill="#012840" transform="translate(185,128)"/>
<path d="M0 0 C3.26202014 2.05041266 4.50813265 3.89186772 6.1875 7.375 C7.05388283 13.30490915 6.66198055 18.34299368 3.1875 23.375 C-2.30716017 28.33359576 -2.30716017 28.33359576 -5.80078125 28.4296875 C-10.17722584 28.09134052 -12.27336269 27.82236925 -15.75 24.9375 C-16.430625 24.091875 -17.11125 23.24625 -17.8125 22.375 C-18.4725 21.715 -19.1325 21.055 -19.8125 20.375 C-21.26797547 16.59076377 -21.70963697 12.32667473 -20.8125 8.375 C-15.26549243 -0.03263713 -9.78417398 -2.17426088 0 0 Z " fill="#062B42" transform="translate(188.8125,361.625)"/>
<path d="M0 0 C3.11372156 0.9602029 4.38834821 1.83288469 7 4 C9.01558713 8.64461383 9.46557354 12.97180576 9 18 C7.63035715 21.0816964 6.70715882 22.57570471 3.8125 24.3125 C2.9153125 24.6528125 2.9153125 24.6528125 2 25 C2 25.66 2 26.32 2 27 C-1.19306561 28.5965328 -4.52570036 28.37487626 -8 28 C-11.6891038 26.32313464 -14.33723849 24.04315601 -17 21 C-18.74069469 15.77791593 -19.27492279 10.63879368 -16.82421875 5.56640625 C-12.1969206 -0.62909318 -7.40282445 -1.44577923 0 0 Z " fill="#092D44" transform="translate(186,245)"/>
<path d="M0 0 C15.98537418 -0.0700405 31.97069868 -0.12296376 47.95618916 -0.15543652 C55.37831561 -0.17091406 62.8003468 -0.19202041 70.22241211 -0.22631836 C76.69050238 -0.2561937 83.15852368 -0.27556855 89.62668103 -0.28226548 C93.05244464 -0.28618095 96.47801088 -0.29540093 99.90371132 -0.31719017 C103.72531495 -0.34130103 107.54672442 -0.34197119 111.3684082 -0.34057617 C112.50776321 -0.351362 113.64711823 -0.36214783 114.82099915 -0.3732605 C116.37959656 -0.36707451 116.37959656 -0.36707451 117.96968079 -0.36076355 C118.8739597 -0.36352893 119.77823862 -0.36629431 120.70991993 -0.36914349 C123.47658513 0.0768219 124.35969144 0.75899809 126 3 C126.59391744 6.90288606 126.33267605 8.50098592 124.125 11.8125 C121.89723821 14.10578419 121.01489158 14.93783988 117.85417175 15.13142776 C116.51132866 15.13588976 116.51132866 15.13588976 115.14135742 15.14044189 C113.60177872 15.14900711 113.60177872 15.14900711 112.03109741 15.15774536 C110.33541122 15.15942215 110.33541122 15.15942215 108.60546875 15.16113281 C106.82494614 15.16858017 106.82494614 15.16858017 105.00845337 15.17617798 C101.7482051 15.18829747 98.48799272 15.19574719 95.22772598 15.20018864 C93.19245373 15.20311787 91.15718713 15.20722232 89.12191772 15.21169281 C82.75847175 15.22536654 76.39503867 15.23503469 70.03157902 15.2388947 C62.67711239 15.24338004 55.3228312 15.26095032 47.96842098 15.2898953 C42.28856236 15.31147684 36.60875606 15.32159703 30.92885685 15.32293582 C27.5339095 15.32398609 24.13913649 15.32994084 20.74423218 15.34775543 C16.96085339 15.36471163 13.17793205 15.36296139 9.39453125 15.35644531 C8.26407379 15.3656601 7.13361633 15.37487488 5.96890259 15.3843689 C4.94251678 15.37879974 3.91613098 15.37323059 2.85864258 15.36749268 C1.96341385 15.36895924 1.06818512 15.3704258 0.14582825 15.3719368 C-0.56229507 15.24919765 -1.2704184 15.12645851 -2 15 C-4.67927341 10.98108988 -4.15601248 8.75838077 -4 4 C-3.67 4 -3.34 4 -3 4 C-3 6.31 -3 8.62 -3 11 C-0.07019734 11.97660089 1.80124497 12.12566113 4.85154724 12.12698364 C5.85117493 12.12980347 6.85080261 12.13262329 7.88072205 12.13552856 C8.97638992 12.13350433 10.0720578 12.1314801 11.20092773 12.12939453 C12.93295944 12.13202301 12.93295944 12.13202301 14.69998169 12.13470459 C18.52786754 12.13911611 22.35570741 12.13618735 26.18359375 12.1328125 C28.83773354 12.13348579 31.49187192 12.13445442 34.14601135 12.13571167 C39.71363831 12.13753149 45.28125201 12.13513223 50.84887695 12.13037109 C57.28416458 12.1249315 63.71942051 12.12668968 70.15470737 12.1321975 C75.68005279 12.13673714 81.20538868 12.13737492 86.73073536 12.13475883 C90.03065 12.13320041 93.3305465 12.13338339 96.63046074 12.13629532 C100.31022165 12.13882939 103.98992139 12.13497036 107.66967773 12.12939453 C109.3101432 12.13243088 109.3101432 12.13243088 110.98374939 12.13552856 C111.9861969 12.13270874 112.98864441 12.12988892 114.02146912 12.12698364 C114.89143241 12.12660662 115.7613957 12.12622959 116.65772152 12.12584114 C119.30692446 12.05795108 119.30692446 12.05795108 123 11 C123 8.03 123 5.06 123 2 C82.08 2 41.16 2 -1 2 C-0.67 1.34 -0.34 0.68 0 0 Z " fill="#001A33" transform="translate(266,384)"/>
<path d="M0 0 C1.34673955 0.00276538 1.34673955 0.00276538 2.72068596 0.00558662 C3.74996208 0.0028373 4.7792382 0.00008797 5.83970451 -0.00274467 C6.97330406 0.00444588 8.10690361 0.01163643 9.27485466 0.01904488 C10.46508232 0.01875282 11.65530998 0.01846077 12.88160515 0.01815987 C16.15004555 0.01931651 19.41831588 0.02936408 22.68672228 0.04330778 C26.10068495 0.0557893 29.51465077 0.0569836 32.92863274 0.0593586 C39.39555414 0.06558097 45.86240812 0.08200198 52.32929981 0.10205758 C59.6907444 0.12439306 67.05219217 0.13540408 74.4136622 0.14544845 C89.55867411 0.16636759 104.70362288 0.20155822 119.84858513 0.24609566 C120.34358513 1.23609566 120.34358513 1.23609566 120.84858513 2.24609566 C118.39996618 3.47040513 116.8041361 3.37886713 114.06587029 3.39085579 C112.55153404 3.40120354 112.55153404 3.40120354 111.00660515 3.41176033 C109.33897118 3.41568039 109.33897118 3.41568039 107.63764763 3.41967964 C106.47013969 3.42636665 105.30263176 3.43305367 104.0997448 3.43994331 C100.89322411 3.45770124 97.68671436 3.47123395 94.4801693 3.48355556 C91.12850076 3.49797698 87.77687564 3.51949668 84.42524529 3.54078865 C73.00325835 3.61204406 61.58122644 3.67183493 50.159132 3.7229023 C43.85249264 3.75117411 37.54593246 3.78653581 31.23937607 3.82955605 C27.90039422 3.85197234 24.56146549 3.87047173 21.22242546 3.88000488 C17.50134367 3.89209683 13.7805225 3.91621989 10.05952263 3.94311714 C8.94776665 3.94370628 7.83601067 3.94429543 6.69056511 3.94490242 C5.17622887 3.9594799 5.17622887 3.9594799 3.63129997 3.97435188 C2.75081993 3.97858382 1.87033989 3.98281576 0.96317863 3.98717594 C-1.36825644 4.05232011 -1.36825644 4.05232011 -3.15141487 6.24609566 C-3.8489007 7.5635689 -4.52101444 8.89523759 -5.15141487 10.24609566 C-4.20642142 0.48116338 -4.20642142 0.48116338 0 0 Z " fill="#223649" transform="translate(267.1514148712158,356.75390434265137)"/>
<path d="M0 0 C0.66 0 1.32 0 2 0 C2 0.66 2 1.32 2 2 C62.39 2.495 62.39 2.495 124 3 C124 3.99 124 4.98 124 6 C108.2754158 6.09338895 92.55090629 6.16395235 76.8261137 6.20724869 C69.52501347 6.22788516 62.22408542 6.25602617 54.9230957 6.30175781 C48.56048034 6.34159275 42.19798965 6.36742493 35.83525306 6.37635398 C32.46531068 6.38157452 29.09572502 6.39386632 25.72589684 6.42292023 C21.96637909 6.45181692 18.20760837 6.45596161 14.44799805 6.45410156 C13.32734451 6.46848267 12.20669098 6.48286377 11.05207825 6.49768066 C9.5187233 6.48943268 9.5187233 6.48943268 7.95439148 6.48101807 C7.06486125 6.48470524 6.17533102 6.48839241 5.25884533 6.49219131 C3 6 3 6 1.19035053 4.09493637 C0 2 0 2 0 0 Z " fill="#273B4C" transform="translate(263,368)"/>
<path d="M0 0 C0.33 0 0.66 0 1 0 C1 1.98 1 3.96 1 6 C1.66 6 2.32 6 3 6 C3 6.66 3 7.32 3 8 C18.70733294 8.07006891 34.41462371 8.12297774 50.12207413 8.15543652 C57.4152575 8.17090802 64.70834378 8.19200286 72.00146484 8.22631836 C78.35786337 8.25621216 84.71419158 8.27557295 91.07065845 8.28226548 C94.43665186 8.28617782 97.80244413 8.29537794 101.16837311 8.31719017 C104.92519684 8.33888885 108.6816005 8.34197002 112.43847656 8.34057617 C113.55553482 8.351362 114.67259308 8.36214783 115.82350159 8.3732605 C116.84711288 8.36913651 117.87072418 8.36501251 118.925354 8.36076355 C119.81396244 8.36352893 120.70257088 8.36629431 121.61810684 8.36914349 C124.46635847 7.92772422 125.85825205 6.88035731 128 5 C127.6875 6.875 127.6875 6.875 127 9 C123.74429964 11.17046691 122.83057416 11.2531777 119.0657959 11.26742554 C118.04789474 11.27595551 117.02999359 11.28448547 115.98124695 11.29327393 C114.86530655 11.29236755 113.74936615 11.29146118 112.59960938 11.29052734 C111.42380814 11.29724457 110.2480069 11.30396179 109.03657532 11.31088257 C105.8114076 11.32663937 102.58639433 11.33323832 99.3611927 11.33451414 C96.66970303 11.33641306 93.9782381 11.34377024 91.28675795 11.35085833 C84.93839229 11.3671431 78.59008336 11.37202709 72.24169922 11.37060547 C65.68924948 11.36940303 59.13712858 11.39052472 52.5847621 11.4220928 C46.96090629 11.44822359 41.33715813 11.45897417 35.71324205 11.45769465 C32.35344412 11.45718419 28.9939386 11.46291315 25.63420105 11.48405075 C21.88931651 11.50355877 18.14528777 11.49793221 14.40039062 11.48583984 C12.72648003 11.50269836 12.72648003 11.50269836 11.01875305 11.51989746 C9.49190132 11.507314 9.49190132 11.507314 7.9342041 11.49447632 C6.60575344 11.49611062 6.60575344 11.49611062 5.25046539 11.49777794 C3 11 3 11 1.20333099 9.20347023 C-0.49126053 6.10043209 -0.20023572 3.47075248 0 0 Z " fill="#0A2135" transform="translate(262,133)"/>
<path d="M0 0 C0.33 0 0.66 0 1 0 C1 2.31 1 4.62 1 7 C3.96043173 7.98681058 5.86828841 8.12345255 8.95439148 8.12025452 C9.97662811 8.12162918 10.99886475 8.12300385 12.05207825 8.12442017 C13.73305855 8.11902725 13.73305855 8.11902725 15.44799805 8.11352539 C16.62861816 8.11367142 17.80923828 8.11381744 19.02563477 8.1139679 C22.26297442 8.11339024 25.50027095 8.10837183 28.737602 8.10139394 C32.12086789 8.09514648 35.50413462 8.0945555 38.8874054 8.09336853 C45.29406216 8.09025933 51.70070187 8.08205147 58.10735112 8.07201904 C65.40111269 8.06084516 72.69487506 8.05534423 79.98864305 8.05032361 C94.9924382 8.03986853 109.9962174 8.02227702 125 8 C124.67 8.99 124.34 9.98 124 11 C108.12774152 11.07001433 92.25552458 11.1229509 76.3831501 11.15543652 C69.01368174 11.17091963 61.64430921 11.19203655 54.27490234 11.22631836 C47.85333344 11.25617673 41.43183391 11.27556449 35.01019752 11.28226548 C31.60849857 11.28618385 28.20699815 11.29542205 24.8053627 11.31719017 C21.0122098 11.33883508 17.21947383 11.34197231 13.42626953 11.34057617 C11.72587021 11.35675491 11.72587021 11.35675491 9.99111938 11.3732605 C8.4472052 11.36707451 8.4472052 11.36707451 6.87210083 11.36076355 C5.97427446 11.36352893 5.0764481 11.36629431 4.15141487 11.36914349 C3.44144796 11.24732614 2.73148106 11.12550879 2 11 C-0.67927341 6.98108988 -0.15601248 4.75838077 0 0 Z " fill="#0A2138" transform="translate(262,388)"/>
<path d="M0 0 C2.41423672 3.62135507 2.28917898 6.26901707 2.2746582 10.453125 C2.27976913 11.20952271 2.28488007 11.96592041 2.29014587 12.74523926 C2.30405247 15.24690652 2.30308453 17.74829867 2.30078125 20.25 C2.30466721 21.98730573 2.30900167 23.72461052 2.31376648 25.46191406 C2.3212307 29.10354696 2.32093568 32.7450829 2.31567383 36.38671875 C2.30987477 41.05770997 2.32681961 45.72830523 2.3500185 50.39923096 C2.36473531 53.98684008 2.36563043 57.57435335 2.36250877 61.1619873 C2.36302289 62.8844074 2.36827744 64.60683274 2.37832069 66.32922363 C2.39063013 68.73537097 2.38392738 71.14074052 2.37231445 73.546875 C2.38378006 74.61766296 2.38378006 74.61766296 2.39547729 75.71008301 C2.34929488 80.02981272 2.22459418 80.77540582 -1 84 C-0.67 56.28 -0.34 28.56 0 0 Z " fill="#001B33" transform="translate(422,221)"/>
<path d="M0 0 C1.56065941 -0.00824799 1.56065941 -0.00824799 3.15284729 -0.0166626 C4.28860703 -0.00228149 5.42436676 0.01209961 6.59454346 0.0269165 C8.39495338 0.02604034 8.39495338 0.02604034 10.23173523 0.02514648 C13.5188563 0.02745488 16.80529523 0.04750717 20.09228039 0.07544231 C23.5288973 0.10045667 26.96552778 0.10279797 30.40222168 0.10754395 C36.90813082 0.1199737 43.41377092 0.15279503 49.91956162 0.1929419 C57.32697238 0.23765984 64.73439602 0.25964666 72.14190817 0.27972364 C87.37790332 0.32152789 102.61363009 0.39187962 117.84942627 0.48101807 C117.84942627 0.81101807 117.84942627 1.14101807 117.84942627 1.48101807 C117.22251451 1.48340642 116.59560276 1.48579477 115.94969368 1.4882555 C100.71053526 1.54733668 85.47155493 1.62284215 70.23257637 1.71673298 C62.86317497 1.76173954 55.49382243 1.8011428 48.12432861 1.82745361 C41.70266834 1.85039454 35.28116204 1.88374834 28.85962379 1.92971963 C25.45798876 1.953705 22.05650671 1.97239874 18.65478897 1.97863197 C14.86152452 1.98819704 11.06882326 2.01616533 7.2756958 2.04864502 C6.14209625 2.04720993 5.0084967 2.04577484 3.84054565 2.04429626 C2.81126953 2.05683441 1.78199341 2.06937256 0.7215271 2.08229065 C-0.17629927 2.08689961 -1.07412563 2.09150858 -1.99915886 2.09625721 C-2.70912577 2.22322829 -3.41909267 2.35019938 -4.15057373 2.48101807 C-5.14057373 3.96601807 -5.14057373 3.96601807 -6.15057373 5.48101807 C-6.81057373 5.48101807 -7.47057373 5.48101807 -8.15057373 5.48101807 C-8.15057373 7.79101807 -8.15057373 10.10101807 -8.15057373 12.48101807 C-8.48057373 12.48101807 -8.81057373 12.48101807 -9.15057373 12.48101807 C-9.64331607 5.08988305 -9.64331607 5.08988305 -7.44807053 2.37729263 C-4.69812351 0.10758127 -3.51737443 -0.01435663 0 0 Z " fill="#4B5763" transform="translate(270.15057373046875,382.51898193359375)"/>
<path d="M0 0 C0.75 2.125 0.75 2.125 1 4 C-0.32 3.34 -1.64 2.68 -3 2 C-3 1.34 -3 0.68 -3 0 C-42.93 0 -82.86 0 -124 0 C-124 -0.33 -124 -0.66 -124 -1 C-108.42314287 -1.17729862 -92.84620195 -1.34296678 -77.2690773 -1.49477577 C-70.03641055 -1.56553413 -62.80382052 -1.64010323 -55.57128906 -1.72363281 C-49.26769211 -1.79642433 -42.96406824 -1.86207672 -36.6603086 -1.91914403 C-33.32224481 -1.94961287 -29.98438668 -1.98472839 -26.64643097 -2.02626419 C-22.92088458 -2.07201733 -19.19542761 -2.10515108 -15.46972656 -2.13525391 C-14.36201904 -2.1517952 -13.25431152 -2.16833649 -12.11303711 -2.18537903 C-11.09783997 -2.19104385 -10.08264282 -2.19670868 -9.03668213 -2.20254517 C-7.71483099 -2.21637206 -7.71483099 -2.21637206 -6.36627579 -2.23047829 C-3.77714863 -1.97829399 -2.17834864 -1.40875789 0 0 Z " fill="#DFDCDC" transform="translate(391,153)"/>
<path d="M0 0 C0.495 0.99 0.495 0.99 1 2 C-0.58475932 4.64402038 -1.58461809 6.17722901 -4 8 C-7.85615011 8.87144338 -11.64698601 8.69959677 -15.58325195 8.58935547 C-16.75441055 8.58047806 -17.92556915 8.57160065 -19.13221741 8.56245422 C-23.00183269 8.52599949 -26.86933255 8.44677413 -30.73828125 8.3671875 C-33.42157307 8.33355794 -36.10478733 8.30230082 -38.78813171 8.27420044 C-45.12792812 8.20260659 -51.46683697 8.10022597 -57.80600661 7.98673165 C-65.02456018 7.85899611 -72.24343089 7.76565843 -79.46253264 7.67518401 C-94.30901467 7.48834885 -109.15458419 7.25839955 -124 7 C-124 6.67 -124 6.34 -124 6 C-123.39131482 5.99945523 -122.78262964 5.99891047 -122.15549946 5.99834919 C-107.3408623 5.98337811 -92.52649524 5.94091825 -77.7120409 5.86790943 C-70.54782015 5.83326465 -63.3837917 5.80790461 -56.21948242 5.80444336 C-49.97461805 5.80140271 -43.73009621 5.78089926 -37.48536414 5.73947543 C-34.17905937 5.71815191 -30.8733498 5.70814539 -27.5669651 5.71384621 C-23.874595 5.71873052 -20.18365018 5.69275232 -16.49145508 5.65942383 C-15.39669357 5.66804947 -14.30193207 5.67667511 -13.17399597 5.68556213 C-6.88337077 5.71018213 -6.88337077 5.71018213 -1.78178406 2.45878601 C-1.19379532 1.64738663 -0.60580658 0.83598724 0 0 Z " fill="#96A1AB" transform="translate(391,393)"/>
<path d="M0 0 C0.66 0 1.32 0 2 0 C1.67 1.32 1.34 2.64 1 4 C-59.39 3.505 -59.39 3.505 -121 3 C-121 2.67 -121 2.34 -121 2 C-120.07371088 1.99365209 -120.07371088 1.99365209 -119.12870884 1.98717594 C-104.12364124 1.88400556 -89.11862389 1.77538852 -74.11364079 1.66066074 C-66.85743403 1.60531219 -59.60122236 1.55182757 -52.3449707 1.50268555 C-46.02263061 1.45986364 -39.70032696 1.41359078 -33.37804312 1.36312145 C-30.02845393 1.33650437 -26.67887205 1.31165099 -23.3292408 1.29092598 C-19.59582571 1.26696035 -15.86250777 1.23689542 -12.12915039 1.20532227 C-10.45141037 1.19668907 -10.45141037 1.19668907 -8.73977661 1.18788147 C-7.72870346 1.17809265 -6.71763031 1.16830383 -5.67591858 1.15821838 C-4.79191911 1.15176583 -3.90791964 1.14531328 -2.9971323 1.1386652 C-1.00079477 1.21960493 -1.00079477 1.21960493 0 0 Z " fill="#C5CBD0" transform="translate(387,168)"/>
<path d="M0 0 C1.35918375 0.01244421 1.35918375 0.01244421 2.74582577 0.02513981 C3.78214138 0.0321793 4.81845699 0.03921879 5.88617611 0.0464716 C7.03272167 0.05941761 8.17926723 0.07236362 9.3605566 0.08570194 C11.16030941 0.10011326 11.16030941 0.10011326 12.99642086 0.11481571 C16.29589749 0.1422244 19.59527475 0.17411869 22.89468789 0.20796561 C26.33932936 0.24225567 29.78401773 0.2708694 33.22870541 0.30007267 C39.75587582 0.35627754 46.28298751 0.41762341 52.81009382 0.48079401 C60.2392035 0.55244572 67.66836029 0.6184002 75.09752667 0.68386447 C90.38375118 0.81869178 105.66990031 0.96071159 120.95601559 1.10743046 C120.95601559 1.43743046 120.95601559 1.76743046 120.95601559 2.10743046 C120.33002563 2.1107406 119.70403566 2.11405075 119.05907631 2.1174612 C103.83629308 2.1986366 88.61361831 2.29071098 73.39097786 2.39495754 C66.0294589 2.44510656 58.6679512 2.49154915 51.30635738 2.52930546 C44.89094459 2.56221833 38.47561862 2.60204554 32.0603016 2.65022051 C28.66257425 2.67549264 25.26490455 2.69727172 21.86710835 2.71077442 C18.07654808 2.72757467 14.28626868 2.75659493 10.49581051 2.7885828 C8.8008041 2.79182308 8.8008041 2.79182308 7.07155514 2.79512882 C5.52557896 2.81187405 5.52557896 2.81187405 3.94837093 2.82895756 C2.60301407 2.83725369 2.60301407 2.83725369 1.23047829 2.84571743 C-1.32347812 2.96446158 -1.32347812 2.96446158 -4.04398441 5.10743046 C-2.92541316 0.15375777 -2.92541316 0.15375777 0 0 Z " fill="#E6E6E7" transform="translate(266.043984413147,125.89256954193115)"/>
<path d="M0 0 C2.08894539 -0.36914349 2.08894539 -0.36914349 4.72024536 -0.36076355 C5.71586487 -0.36488754 6.71148437 -0.36901154 7.73727417 -0.3732605 C8.83347076 -0.36247467 9.92966736 -0.35168884 11.05908203 -0.34057617 C12.21029541 -0.34101425 13.36150879 -0.34145233 14.54760742 -0.34190369 C18.36784596 -0.33980705 22.18765026 -0.3164342 26.0078125 -0.29296875 C28.65054077 -0.28737592 31.29327215 -0.28310435 33.93600464 -0.28010559 C40.1904732 -0.27077235 46.44478489 -0.24614145 52.6991843 -0.21605712 C59.81878287 -0.18255274 66.93838883 -0.16603711 74.05804658 -0.15097082 C88.7054454 -0.11959289 103.3527205 -0.06680767 118 0 C118 0.33 118 0.66 118 1 C117.40585423 1.00423194 116.81170845 1.00846388 116.19955826 1.01282406 C101.74422232 1.11611835 87.28893383 1.22475431 72.83368301 1.33933926 C65.84324046 1.39462273 58.8527928 1.44809668 51.86230469 1.49731445 C45.1190377 1.54479669 38.37582731 1.59731669 31.63262177 1.65294075 C29.05697656 1.67335743 26.48131729 1.69207165 23.90564728 1.70907402 C20.30455938 1.73313304 16.70356854 1.76318587 13.10253906 1.79467773 C12.0322345 1.8004332 10.96192993 1.80618866 9.85919189 1.81211853 C8.3868811 1.82680176 8.3868811 1.82680176 6.88482666 1.84178162 C6.03308994 1.84823417 5.18135323 1.85468672 4.3038063 1.8613348 C2.07877105 1.9952588 0.13652066 2.38211244 -2 3 C-1.34 2.01 -0.68 1.02 0 0 Z " fill="#001D2F" transform="translate(267,268)"/>
<path d="M0 0 C0.66 0 1.32 0 2 0 C1.61121002 2.81872737 1.29189635 3.77195598 -1 5.5625 C-1.66 6.036875 -2.32 6.51125 -3 7 C-4.19339914 10.58019741 -4.17584342 13.86419032 -4.20532227 17.5925293 C-4.21522186 18.36349945 -4.22512146 19.1344696 -4.23532104 19.92880249 C-4.26690956 22.47724333 -4.291683 25.02570282 -4.31640625 27.57421875 C-4.33697806 29.3411355 -4.3579746 31.10804736 -4.37937927 32.87495422 C-4.43457645 37.52572667 -4.48399612 42.17654336 -4.53222656 46.82739258 C-4.58245876 51.57311949 -4.63813586 56.31878214 -4.69335938 61.06445312 C-4.80091216 70.37624719 -4.90236356 79.68809705 -5 89 C-5.33 89 -5.66 89 -6 89 C-6.09280984 78.69026807 -6.16382075 68.38063605 -6.20724869 58.07057095 C-6.22809533 53.28281807 -6.25635942 48.49535169 -6.30175781 43.70776367 C-6.34532005 39.08471434 -6.36915909 34.46194004 -6.37950897 29.83870125 C-6.38688175 28.07768489 -6.40127915 26.31668304 -6.42292023 24.55578423 C-6.45209283 22.08300498 -6.45595032 19.61135225 -6.45410156 17.13842773 C-6.46848267 16.41553558 -6.48286377 15.69264343 -6.49768066 14.94784546 C-6.44729877 8.69204756 -4.42310988 4.42310988 0 0 Z " fill="#C8CDD1" transform="translate(98,212)"/>
<path d="M0 0 C0.66 0.33 1.32 0.66 2 1 C2 1.66 2 2.32 2 3 C1.33613281 3.02578125 0.67226562 3.0515625 -0.01171875 3.078125 C-5.51766256 3.43179146 -9.04186392 3.7865003 -13 8 C-14.21693876 10.43387753 -14.31959896 12.41838846 -14.5625 15.125 C-14.64628906 16.03507812 -14.73007813 16.94515625 -14.81640625 17.8828125 C-14.87699219 18.58148438 -14.93757812 19.28015625 -15 20 C-15.66 20 -16.32 20 -17 20 C-18.60937584 16.78124833 -18.4623984 13.4907823 -18 10 C-13.9618451 1.92369021 -8.64234257 -0.72019521 0 0 Z " fill="#233649" transform="translate(185,128)"/>
<path d="M0 0 C1.5 1.0625 1.5 1.0625 3 3 C3.80881873 9.00836771 2.3060876 12.18255806 -1 17 C-1.99 17.66 -2.98 18.32 -4 19 C-4 16 -4 16 -2 14 C-0.30388221 9.19433294 0.20741544 5.0816782 0 0 Z " fill="#314557" transform="translate(146,251)"/>
<path d="M0 0 C1.32 0.66 2.64 1.32 4 2 C4.58079748 12.88457503 4.58079748 12.88457503 1 18 C-1.1875 19.375 -1.1875 19.375 -3 20 C-3 19.34 -3 18.68 -3 18 C-2 17 -1 16 0 15 C1.60116168 10.19651495 1.6117046 4.8351138 0 0 Z " fill="#0B1C32" transform="translate(191,367)"/>
<path d="M0 0 C1.55373847 3.10747694 0.58528628 5.74226527 0.0625 9.125 C-0.22947266 11.04699219 -0.22947266 11.04699219 -0.52734375 13.0078125 C-0.68332031 13.99523437 -0.83929688 14.98265625 -1 16 C-1.66 16 -2.32 16 -3 16 C-4.6033559 12.7932882 -4.49604443 9.47875318 -4 6 C-2.88843696 3.68950216 -1.61720298 2.02150372 0 0 Z " fill="#314254" transform="translate(171,132)"/>
<path d="M0 0 C3.1524823 3.1524823 2.80165144 6.75779825 3.1015625 11.0703125 C3 14 3 14 1.25 17.1875 C-1 19 -1 19 -4 20 C-3.53093741 17.46706201 -3.0137494 16.01814921 -1.4375 13.9375 C0.7695693 9.42740187 0.23340224 4.93602514 0 0 Z " fill="#BDC2C7" transform="translate(194,252)"/>
<path d="M0 0 C0.33 0.66 0.66 1.32 1 2 C-0.58730359 4.71003052 -1.50032886 6.20539807 -4 8 C-7.98358766 8.62241191 -11.81296872 8.2463676 -15.8125 7.875 C-16.88693359 7.80023438 -17.96136719 7.72546875 -19.06835938 7.6484375 C-21.71564602 7.46018601 -24.35729092 7.24321941 -27 7 C-27 6.67 -27 6.34 -27 6 C-26.03960815 5.99383667 -26.03960815 5.99383667 -25.05981445 5.98754883 C-22.14312095 5.95453962 -19.22849616 5.88388974 -16.3125 5.8125 C-15.30509766 5.80669922 -14.29769531 5.80089844 -13.25976562 5.79492188 C-6.92604461 5.7345819 -6.92604461 5.7345819 -1.79296875 2.44921875 C-1.20128906 1.64097656 -0.60960937 0.83273437 0 0 Z " fill="#ADB4BB" transform="translate(391,393)"/>
<path d="M0 0 C4.29 0.66 8.58 1.32 13 2 C13 2.66 13 3.32 13 4 C10.55333494 5.22333253 9.20770626 5.04546823 6.5 4.8125 C5.30890625 4.72935547 5.30890625 4.72935547 4.09375 4.64453125 C3.4028125 4.43183594 2.711875 4.21914063 2 4 C1.34 2.68 0.68 1.36 0 0 Z " fill="#2B3A4D" transform="translate(174,385)"/>
<path d="M0 0 C0 4.35251187 -2.06165511 5.92809398 -5 9 C-7.1875 10 -7.1875 10 -9 10 C-9.66 9.34 -10.32 8.68 -11 8 C-10.113125 7.4225 -9.22625 6.845 -8.3125 6.25 C-5.40957756 4.31931524 -2.69231351 2.21719936 0 0 Z " fill="#E3E5E7" transform="translate(196,381)"/>
<path d="M0 0 C0.33 0.99 0.66 1.98 1 3 C-0.2543058 4.41934603 -1.51083348 5.83687921 -2.78515625 7.23828125 C-4.89861689 10.30313897 -4.81087443 13.34357235 -5 17 C-5.33 17 -5.66 17 -6 17 C-6.84715128 13.92462727 -7.30459278 11.18839858 -7 8 C-5.055764 4.90041958 -2.69171677 2.46349141 0 0 Z " fill="#E7E8EA" transform="translate(173,244)"/>
<path d="M0 0 C0.33 0 0.66 0 1 0 C1.3125 3.25 1.3125 3.25 1 7 C-1.71913126 10.1190035 -3.17373382 10.93764029 -7.3125 11.25 C-8.199375 11.1675 -9.08625 11.085 -10 11 C-9.443125 10.608125 -8.88625 10.21625 -8.3125 9.8125 C-3.0742816 5.71008736 -3.0742816 5.71008736 0 0 Z " fill="#314356" transform="translate(420,185)"/>
<path d="M0 0 C0.99 0 1.98 0 3 0 C3 0.99 3 1.98 3 3 C2.34 3 1.68 3 1 3 C2.21044132 7.60742865 2.21044132 7.60742865 4 12 C0.125 11.125 0.125 11.125 -1 10 C-1.0979057 8.50261876 -1.12974864 7.00057108 -1.125 5.5 C-1.12757813 4.6853125 -1.13015625 3.870625 -1.1328125 3.03125 C-1 1 -1 1 0 0 Z " fill="#1D2A3E" transform="translate(262,156)"/>
<path d="M0 0 C0.66 0 1.32 0 2 0 C0.80086322 4.39683488 -0.4288115 7.09840934 -4 10 C-4.66 10 -5.32 10 -6 10 C-5.49259538 5.60249328 -2.91706686 3.13051078 0 0 Z " fill="#E0E2E4" transform="translate(195,147)"/>
<path d="M0 0 C0.66 0 1.32 0 2 0 C1.67 1.32 1.34 2.64 1 4 C-5.6 3.67 -12.2 3.34 -19 3 C-19 2.67 -19 2.34 -19 2 C-17.71222656 1.93941406 -16.42445313 1.87882813 -15.09765625 1.81640625 C-13.41925841 1.73201753 -11.74087364 1.6473687 -10.0625 1.5625 C-8.78729492 1.50352539 -8.78729492 1.50352539 -7.48632812 1.44335938 C-6.67744141 1.40146484 -5.86855469 1.35957031 -5.03515625 1.31640625 C-3.91185913 1.26141968 -3.91185913 1.26141968 -2.76586914 1.20532227 C-0.97538674 1.18228937 -0.97538674 1.18228937 0 0 Z " fill="#CFD3D7" transform="translate(387,168)"/>
<path d="M0 0 C3.875 0.875 3.875 0.875 5 2 C5.375 4.75 5.375 4.75 5 8 C2.5 10.875 2.5 10.875 0 13 C0 12.01 0 11.02 0 10 C0.66 10 1.32 10 2 10 C2 7.03 2 4.06 2 1 C1.34 0.67 0.68 0.34 0 0 Z " fill="#182337" transform="translate(387,385)"/>
<path d="M0 0 C3.3 0 6.6 0 10 0 C10 0.99 10 1.98 10 3 C3.375 3.125 3.375 3.125 0 2 C0 1.34 0 0.68 0 0 Z " fill="#061D35" transform="translate(129,386)"/>
<path d="M0 0 C4.68738665 0.90723613 9.34193744 1.9547267 14 3 C13.67 3.66 13.34 4.32 13 5 C4.80743982 4.64989059 4.80743982 4.64989059 1.4375 1.9375 C0.963125 1.298125 0.48875 0.65875 0 0 Z " fill="#19283E" transform="translate(171,152)"/>
<path d="M0 0 C0.66 0 1.32 0 2 0 C0.98823563 3.40320742 0.35156418 4.75725331 -2.625 6.8125 C-3.40875 7.204375 -4.1925 7.59625 -5 8 C-5.99 7.34 -6.98 6.68 -8 6 C-2.25 2 -2.25 2 0 2 C0 1.34 0 0.68 0 0 Z " fill="#DEE1E3" transform="translate(392,138)"/>
<path d="M0 0 C0.33 0 0.66 0 1 0 C1.33 4.29 1.66 8.58 2 13 C1.01 12.67 0.02 12.34 -1 12 C-1.02712066 10.56260487 -1.04645067 9.12506137 -1.0625 7.6875 C-1.07410156 6.88699219 -1.08570313 6.08648437 -1.09765625 5.26171875 C-1 3 -1 3 0 0 Z " fill="#011831" transform="translate(170,252)"/>
<path d="M0 0 C3.54149204 1.86394318 5.74074467 3.10775626 7 7 C7.125 9.75 7.125 9.75 7 12 C5.80076369 10.20114553 4.64017165 8.37421156 3.5625 6.5 C2.19495692 4.31193107 0.89998434 2.71903345 -1 1 C-0.67 0.67 -0.34 0.34 0 0 Z " fill="#091D34" transform="translate(140,246)"/>
<path d="M0 0 C0.680625 0.639375 1.36125 1.27875 2.0625 1.9375 C5.46408839 4.3258493 7.90433701 4.67877153 12 5 C10.375 6.125 10.375 6.125 8 7 C4.53891316 6.16933916 2.52986895 5.52986895 0 3 C0 2.01 0 1.02 0 0 Z " fill="#0B1E34" transform="translate(123,265)"/>
<path d="M0 0 C0.99 0.495 0.99 0.495 2 1 C2 1.66 2 2.32 2 3 C7.445 4.485 7.445 4.485 13 6 C13 6.33 13 6.66 13 7 C8.0600659 7.29058436 4.90174327 7.21320034 1 4 C0.1875 1.8125 0.1875 1.8125 0 0 Z " fill="#08142B" transform="translate(123,149)"/>
<path d="M0 0 C0.33 0.99 0.66 1.98 1 3 C0.34 3.66 -0.32 4.32 -1 5 C-1.45811675 6.97235333 -1.45811675 6.97235333 -1.625 9.125 C-1.74875 10.40375 -1.8725 11.6825 -2 13 C-2.33 13 -2.66 13 -3 13 C-3.59222907 9.98735648 -4.05823431 7.07583023 -4 4 C-2.0625 1.4375 -2.0625 1.4375 0 0 Z " fill="#DFE1E3" transform="translate(263,152)"/>
<path d="M0 0 C0.33 0 0.66 0 1 0 C1 3.3 1 6.6 1 10 C0.01 10.33 -0.98 10.66 -2 11 C-1.40049704 7.31733897 -0.75241109 3.65456815 0 0 Z " fill="#1B2C41" transform="translate(194,138)"/>
<path d="M0 0 C1.48828125 1.14453125 1.48828125 1.14453125 3 3 C3.29296875 5.69921875 3.29296875 5.69921875 3.1875 8.6875 C3.16042969 9.68136719 3.13335937 10.67523438 3.10546875 11.69921875 C3.07066406 12.45847656 3.03585938 13.21773437 3 14 C2.67 14 2.34 14 2 14 C2 11.36 2 8.72 2 6 C1.34 6 0.68 6 0 6 C0 4.02 0 2.04 0 0 Z " fill="#556673" transform="translate(145,134)"/>
<path d="M0 0 C0.66 0.99 1.32 1.98 2 3 C-0.31 4.98 -2.62 6.96 -5 9 C-5.66 8.34 -6.32 7.68 -7 7 C-6.21625 6.5875 -5.4325 6.175 -4.625 5.75 C-1.94108344 3.9607223 -1.11901051 2.95011861 0 0 Z " fill="#CFD2D5" transform="translate(146,381)"/>
<path d="M0 0 C2.86724686 0.57344937 3.8614515 0.8614515 6 3 C6.26991906 5.68839385 6.08737357 8.29141936 6 11 C5.67 11 5.34 11 5 11 C5 8.69 5 6.38 5 4 C4.360625 3.71125 3.72125 3.4225 3.0625 3.125 C1 2 1 2 0 0 Z " fill="#2A3749" transform="translate(386,244)"/>
<path d="M0 0 C0.33 0.99 0.66 1.98 1 3 C-0.8125 5.6875 -0.8125 5.6875 -3 8 C-3.66 8 -4.32 8 -5 8 C-3.62845496 5.04590299 -2.01136276 2.55991624 0 0 Z " fill="#EFEFF0" transform="translate(419,185)"/>
<path d="M0 0 C2.97 0 5.94 0 9 0 C9 0.66 9 1.32 9 2 C6.29120665 3.35439668 3.99066732 3.06501451 1 3 C0.67 2.01 0.34 1.02 0 0 Z " fill="#182E44" transform="translate(131,154)"/>
<path d="M0 0 C-4.5 3 -4.5 3 -9 6 C-8.6875 4.125 -8.6875 4.125 -8 2 C-4.77208445 -0.1519437 -3.71599191 -0.20086443 0 0 Z " fill="#1A2F42" transform="translate(104,325)"/>
<path d="M0 0 C0.928125 0.0825 1.85625 0.165 2.8125 0.25 C0.83829865 2.77259061 -0.15495642 3.2429808 -3.375 3.9375 C-4.7671875 4.0921875 -4.7671875 4.0921875 -6.1875 4.25 C-4.36434338 1.00883268 -3.82500054 0.30000004 0 0 Z " fill="#041A33" transform="translate(180.1875,244.75)"/>
<path d="M0 0 C0.33 0.99 0.66 1.98 1 3 C-0.65 4.65 -2.3 6.3 -4 8 C-4.33 7.01 -4.66 6.02 -5 5 C-3.35 3.35 -1.7 1.7 0 0 Z " fill="#EEEFF1" transform="translate(125,244)"/>
<path d="M0 0 C0.66 0.33 1.32 0.66 2 1 C2 3.64 2 6.28 2 9 C1.34 9 0.68 9 0 9 C-1.125 2.25 -1.125 2.25 0 0 Z " fill="#3D4A5A" transform="translate(390,131)"/>
<path d="M0 0 C0.66 0.33 1.32 0.66 2 1 C1.01 2.485 1.01 2.485 0 4 C-0.66 4 -1.32 4 -2 4 C-2 6.31 -2 8.62 -2 11 C-2.33 11 -2.66 11 -3 11 C-3.36923077 3.49230769 -3.36923077 3.49230769 -1.5 1 C-1.005 0.67 -0.51 0.34 0 0 Z " fill="#354252" transform="translate(264,384)"/>
<path d="M0 0 C0.5625 1.9375 0.5625 1.9375 1 4 C0.67 4.33 0.34 4.66 0 5 C-0.36760731 7.32817964 -0.70241581 9.6618385 -1 12 C-1.33 12 -1.66 12 -2 12 C-2.05422947 10.5629191 -2.09289723 9.12524538 -2.125 7.6875 C-2.14820312 6.88699219 -2.17140625 6.08648437 -2.1953125 5.26171875 C-2 3 -2 3 0 0 Z " fill="#000D25" transform="translate(123,135)"/>
<path d="" fill="#00283D" transform="translate(0,0)"/>
</svg>
